<?xml version="1.0" encoding="UTF-8"?>
<svg xmlns="http://www.w3.org/2000/svg" width="512" height="512" viewBox="0 0 100 100">
  <defs>
    <clipPath id="letter-clip-0">
      <path d="M 176 494 L 24 494 Q 23 560 48 608 Q 73 656 115.5 687 Q 158 718 213.5 732.5 Q 269 747 328 747 Q 401 747 456.5 730 Q 512 713 549.5 682.5 Q 587 652 606 610 Q 625 568 625 519 Q 625 459 599.5 420.5 Q 574 382 539 359 Q 504 336 468.5 325.5 Q 433 315 413 311 Q 346 294 304.5 283 Q 263 272 239.5 261 Q 216 250 208 237 Q 200 224 200 203 Q 200 180 210 165 Q 220 150 235.5 140 Q 251 130 270 126 Q 289 122 308 122 Q 337 122 361.5 127 Q 386 132 405 144 Q 424 156 435.5 177 Q 447 198 449 230 L 601 230 Q 601 168 577.5 124.5 Q 554 81 514 53 Q 474 25 422.5 12.5 Q 371 0 315 0 Q 267 0 219 13 Q 171 26 133 53 Q 95 80 71.5 120.5 Q 48 161 48 216 Q 48 265 66.5 299.5 Q 85 334 115 357 Q 145 380 183 394.5 Q 221 409 261 419 Q 300 430 338 439 Q 376 448 406 460 Q 436 472 454.5 490 Q 473 508 473 537 Q 473 564 459 581.5 Q 445 599 424 609 Q 403 619 379 622.5 Q 355 626 334 626 Q 303 626 274 618.5 Q 245 611 223.5 595.5 Q 202 580 189 555 Q 176 530 176 494 Z" transform="translate(5.972,7.500) scale(0.066,0.114)" />
    </clipPath>
    <clipPath id="letter-clip-1">
      <path d="M 69 0 L 69 714 L 574 714 L 574 582 L 226 582 L 226 0 Z" transform="translate(48.517,9.378) scale(0.066,0.114)" />
    </clipPath>
  </defs>
  <rect x="0" y="0" width="50" height="50" fill="#77BEF0" />
  <rect x="50" y="0" width="50" height="50" fill="#FFCB61" />
  <rect x="0" y="50" width="50" height="50" fill="#FF894F" />
  <rect x="50" y="50" width="50" height="50" fill="#EA5B6F" />
  <g clip-path="url(#letter-clip-0)">
    <path d="M 0 0 H 100 V 50 H 0 Z" fill="#88410f" />
    <path d="M 0 50 H 100 V 100 H 0 Z" fill="#0076b0" />
  </g>
  <g clip-path="url(#letter-clip-1)">
    <path d="M 0 0 H 100 V 50 H 0 Z" fill="#00349e" />
    <path d="M 0 50 H 100 V 100 H 0 Z" fill="#15a490" />
  </g>
</svg>
